<!-- Generated by IcoMoon.io -->
<svg version="1.1" xmlns="http://www.w3.org/2000/svg" width="32" height="32" viewBox="0 0 32 32">
<path fill="#fff" d="M0.667 0.667c0.414-0.415 0.986-0.671 1.618-0.671s1.204 0.257 1.618 0.671l12.096 12.101 12.096-12.101c0.414-0.414 0.986-0.67 1.618-0.67 1.264 0 2.289 1.025 2.289 2.289 0 0.632-0.256 1.204-0.67 1.618l-12.101 12.096 12.101 12.096c0.414 0.414 0.67 0.986 0.67 1.618 0 1.264-1.025 2.289-2.289 2.289-0.632 0-1.204-0.256-1.618-0.67v0l-12.096-12.101-12.096 12.101c-0.414 0.414-0.986 0.67-1.618 0.67-1.264 0-2.289-1.025-2.289-2.289 0-0.632 0.256-1.204 0.67-1.618l12.101-12.096-12.101-12.096c-0.415-0.414-0.671-0.986-0.671-1.618s0.257-1.204 0.671-1.618l0-0z"></path>
</svg>
