<!-- Generated by IcoMoon.io -->
<svg version="1.1" xmlns="http://www.w3.org/2000/svg" width="19" height="32" viewBox="0 0 19 32">
<path fill="#fff" d="M17.65 0.75c0.218 0.217 0.353 0.518 0.353 0.85s-0.135 0.632-0.353 0.85l-13.552 13.55 13.552 13.55c0.217 0.217 0.352 0.518 0.352 0.85 0 0.664-0.538 1.202-1.202 1.202-0.332 0-0.632-0.134-0.85-0.352l-14.4-14.4c-0.218-0.217-0.353-0.518-0.353-0.85s0.135-0.632 0.353-0.85l14.4-14.4c0.217-0.218 0.518-0.353 0.85-0.353s0.632 0.135 0.85 0.353l0 0z"></path>
</svg>
