<!-- Generated by IcoMoon.io -->
<svg version="1.1" xmlns="http://www.w3.org/2000/svg" width="19" height="32" viewBox="0 0 19 32">
<path fill="#fff" d="M1.552 0.75c0.217-0.217 0.517-0.352 0.849-0.352s0.632 0.134 0.849 0.352l14.4 14.4c0.218 0.217 0.353 0.518 0.353 0.85s-0.135 0.632-0.353 0.85l-14.4 14.4c-0.214 0.201-0.503 0.324-0.821 0.324-0.664 0-1.202-0.538-1.202-1.202 0-0.318 0.124-0.607 0.325-0.822l-0.001 0.001 13.552-13.55-13.552-13.55c-0.218-0.217-0.353-0.518-0.353-0.85s0.135-0.632 0.353-0.85l0-0z"></path>
</svg>
